<svg width="80" height="80" fill="none" xmlns="http://www.w3.org/2000/svg"><path fill="#68B738" d="M0 0h80v80H0z"/><path fill-rule="evenodd" clip-rule="evenodd" d="M46.6 25c.4 0 .8 0 1.1.3 1 .9 2.1 2.9 3 6 1 3 1.8 7.2 1.8 12.7 0 .6-.4 1-1 1H48v9a1 1 0 1 1-2 0V26c0-.4.2-.8.6-1ZM48 43h2.5A39.6 39.6 0 0 0 48 29.5V43ZM34 25c.6 0 1 .4 1 1v28a1 1 0 1 1-2 0V26c0-.6.4-1 1-1Z" fill="#fff"/><path fill-rule="evenodd" clip-rule="evenodd" d="M29.5 25c.6 0 1 .4 1 1v5.5c0 .6.2 1.3.7 2 .5.5 1.3 1 2.8 1a1 1 0 1 1 0 2c-2 0-3.4-.7-4.3-1.8a5 5 0 0 1-1.2-3.2V26c0-.6.4-1 1-1Z" fill="#fff"/><path fill-rule="evenodd" clip-rule="evenodd" d="M38.5 25a1 1 0 0 0-1 1v5.5a3 3 0 0 1-.7 2c-.5.5-1.3 1-2.8 1a1 1 0 0 0 0 2c2 0 3.4-.7 4.3-1.8a5 5 0 0 0 1.2-3.2V26c0-.6-.4-1-1-1Z" fill="#fff"/></svg>